<svg width="1011" height="313" viewBox="0 0 1011 313" fill="none" xmlns="http://www.w3.org/2000/svg">
<path d="M20.75 250V75H54.25L157.5 201H141.25V75H181.25V250H148L44.5 124H60.75V250H20.75ZM283.904 252C269.571 252 256.821 249 245.654 243C234.654 237 225.904 228.833 219.404 218.5C213.071 208 209.904 196.083 209.904 182.75C209.904 169.25 213.071 157.333 219.404 147C225.904 136.5 234.654 128.333 245.654 122.5C256.821 116.5 269.571 113.5 283.904 113.5C298.071 113.5 310.738 116.5 321.904 122.5C333.071 128.333 341.821 136.417 348.154 146.75C354.488 157.083 357.654 169.083 357.654 182.75C357.654 196.083 354.488 208 348.154 218.5C341.821 228.833 333.071 237 321.904 243C310.738 249 298.071 252 283.904 252ZM283.904 220C290.404 220 296.238 218.5 301.404 215.5C306.571 212.5 310.654 208.25 313.654 202.75C316.654 197.083 318.154 190.417 318.154 182.75C318.154 174.917 316.654 168.25 313.654 162.75C310.654 157.25 306.571 153 301.404 150C296.238 147 290.404 145.5 283.904 145.5C277.404 145.5 271.571 147 266.404 150C261.238 153 257.071 157.25 253.904 162.75C250.904 168.25 249.404 174.917 249.404 182.75C249.404 190.417 250.904 197.083 253.904 202.75C257.071 208.25 261.238 212.5 266.404 215.5C271.571 218.5 277.404 220 283.904 220ZM383.723 250V115.5H420.973V153.5L415.723 142.5C419.723 133 426.139 125.833 434.973 121C443.806 116 454.556 113.5 467.223 113.5V149.5C465.556 149.333 464.056 149.25 462.723 149.25C461.389 149.083 459.973 149 458.473 149C447.806 149 439.139 152.083 432.473 158.25C425.973 164.25 422.723 173.667 422.723 186.5V250H383.723ZM525.801 250L477.301 115.5H514.051L554.301 231.25H536.801L578.801 115.5H611.801L652.551 231.25H635.051L676.551 115.5H711.051L662.301 250H624.551L588.801 150.75H600.301L563.301 250H525.801ZM807.287 250V223.75L804.787 218V171C804.787 162.667 802.204 156.167 797.037 151.5C792.037 146.833 784.287 144.5 773.787 144.5C766.62 144.5 759.537 145.667 752.537 148C745.704 150.167 739.87 153.167 735.037 157L721.037 129.75C728.37 124.583 737.204 120.583 747.537 117.75C757.87 114.917 768.37 113.5 779.037 113.5C799.537 113.5 815.454 118.333 826.787 128C838.12 137.667 843.787 152.75 843.787 173.25V250H807.287ZM766.287 252C755.787 252 746.787 250.25 739.287 246.75C731.787 243.083 726.037 238.167 722.037 232C718.037 225.833 716.037 218.917 716.037 211.25C716.037 203.25 717.954 196.25 721.787 190.25C725.787 184.25 732.037 179.583 740.537 176.25C749.037 172.75 760.12 171 773.787 171H809.537V193.75H778.037C768.87 193.75 762.537 195.25 759.037 198.25C755.704 201.25 754.037 205 754.037 209.5C754.037 214.5 755.954 218.5 759.787 221.5C763.787 224.333 769.204 225.75 776.037 225.75C782.537 225.75 788.37 224.25 793.537 221.25C798.704 218.083 802.454 213.5 804.787 207.5L810.787 225.5C807.954 234.167 802.787 240.75 795.287 245.25C787.787 249.75 778.12 252 766.287 252ZM893.643 300.5C886.643 300.5 879.726 299.417 872.893 297.25C866.059 295.083 860.476 292.083 856.143 288.25L870.393 260.5C873.393 263.167 876.809 265.25 880.643 266.75C884.643 268.25 888.559 269 892.393 269C897.893 269 902.226 267.667 905.393 265C908.726 262.5 911.726 258.25 914.393 252.25L921.393 235.75L924.393 231.5L972.643 115.5H1010.14L949.393 258.25C945.059 269.083 940.059 277.583 934.393 283.75C928.893 289.917 922.726 294.25 915.893 296.75C909.226 299.25 901.809 300.5 893.643 300.5ZM916.643 255.25L856.643 115.5H896.893L943.393 228L916.643 255.25Z" fill="white"/>
<path d="M20.75 250V75H54.25L157.5 201H141.25V75H181.25V250H148L44.5 124H60.75V250H20.75ZM283.904 252C269.571 252 256.821 249 245.654 243C234.654 237 225.904 228.833 219.404 218.5C213.071 208 209.904 196.083 209.904 182.75C209.904 169.25 213.071 157.333 219.404 147C225.904 136.5 234.654 128.333 245.654 122.5C256.821 116.5 269.571 113.5 283.904 113.5C298.071 113.5 310.738 116.5 321.904 122.5C333.071 128.333 341.821 136.417 348.154 146.75C354.488 157.083 357.654 169.083 357.654 182.75C357.654 196.083 354.488 208 348.154 218.5C341.821 228.833 333.071 237 321.904 243C310.738 249 298.071 252 283.904 252ZM283.904 220C290.404 220 296.238 218.5 301.404 215.5C306.571 212.5 310.654 208.25 313.654 202.75C316.654 197.083 318.154 190.417 318.154 182.75C318.154 174.917 316.654 168.25 313.654 162.75C310.654 157.25 306.571 153 301.404 150C296.238 147 290.404 145.5 283.904 145.5C277.404 145.5 271.571 147 266.404 150C261.238 153 257.071 157.25 253.904 162.75C250.904 168.25 249.404 174.917 249.404 182.75C249.404 190.417 250.904 197.083 253.904 202.75C257.071 208.25 261.238 212.5 266.404 215.5C271.571 218.5 277.404 220 283.904 220ZM383.723 250V115.5H420.973V153.5L415.723 142.5C419.723 133 426.139 125.833 434.973 121C443.806 116 454.556 113.5 467.223 113.5V149.5C465.556 149.333 464.056 149.25 462.723 149.25C461.389 149.083 459.973 149 458.473 149C447.806 149 439.139 152.083 432.473 158.25C425.973 164.25 422.723 173.667 422.723 186.5V250H383.723ZM525.801 250L477.301 115.5H514.051L554.301 231.25H536.801L578.801 115.5H611.801L652.551 231.25H635.051L676.551 115.5H711.051L662.301 250H624.551L588.801 150.75H600.301L563.301 250H525.801ZM807.287 250V223.75L804.787 218V171C804.787 162.667 802.204 156.167 797.037 151.5C792.037 146.833 784.287 144.5 773.787 144.5C766.62 144.5 759.537 145.667 752.537 148C745.704 150.167 739.87 153.167 735.037 157L721.037 129.75C728.37 124.583 737.204 120.583 747.537 117.75C757.87 114.917 768.37 113.5 779.037 113.5C799.537 113.5 815.454 118.333 826.787 128C838.12 137.667 843.787 152.75 843.787 173.25V250H807.287ZM766.287 252C755.787 252 746.787 250.25 739.287 246.75C731.787 243.083 726.037 238.167 722.037 232C718.037 225.833 716.037 218.917 716.037 211.25C716.037 203.25 717.954 196.25 721.787 190.25C725.787 184.25 732.037 179.583 740.537 176.25C749.037 172.75 760.12 171 773.787 171H809.537V193.75H778.037C768.87 193.75 762.537 195.25 759.037 198.25C755.704 201.25 754.037 205 754.037 209.5C754.037 214.5 755.954 218.5 759.787 221.5C763.787 224.333 769.204 225.75 776.037 225.75C782.537 225.75 788.37 224.25 793.537 221.25C798.704 218.083 802.454 213.5 804.787 207.5L810.787 225.5C807.954 234.167 802.787 240.75 795.287 245.25C787.787 249.75 778.12 252 766.287 252ZM893.643 300.5C886.643 300.5 879.726 299.417 872.893 297.25C866.059 295.083 860.476 292.083 856.143 288.25L870.393 260.5C873.393 263.167 876.809 265.25 880.643 266.75C884.643 268.25 888.559 269 892.393 269C897.893 269 902.226 267.667 905.393 265C908.726 262.5 911.726 258.25 914.393 252.25L921.393 235.75L924.393 231.5L972.643 115.5H1010.14L949.393 258.25C945.059 269.083 940.059 277.583 934.393 283.75C928.893 289.917 922.726 294.25 915.893 296.75C909.226 299.25 901.809 300.5 893.643 300.5ZM916.643 255.25L856.643 115.5H896.893L943.393 228L916.643 255.25Z" fill="url(#paint0_linear_142_78)"/>
<path d="M387.88 17.06H398.68V19.61H387.88V17.06ZM388.15 26.39H400.39V29H385.15V8H399.97V10.61H388.15V26.39ZM418.753 29L427.483 17.09V19.4L419.233 8H422.653L429.193 16.97L427.843 17L434.353 8H437.623L429.433 19.22V17.06L438.163 29H434.713L427.753 19.43H429.073L422.203 29H418.753ZM457.496 29V8H465.686C467.526 8 469.096 8.29 470.396 8.87C471.696 9.45 472.696 10.29 473.396 11.39C474.096 12.49 474.446 13.8 474.446 15.32C474.446 16.84 474.096 18.15 473.396 19.25C472.696 20.33 471.696 21.17 470.396 21.77C469.096 22.35 467.526 22.64 465.686 22.64H459.146L460.496 21.23V29H457.496ZM460.496 21.53L459.146 20.03H465.596C467.516 20.03 468.966 19.62 469.946 18.8C470.946 17.98 471.446 16.82 471.446 15.32C471.446 13.82 470.946 12.66 469.946 11.84C468.966 11.02 467.516 10.61 465.596 10.61H459.146L460.496 9.11V21.53ZM495.353 29V8H498.353V26.39H509.723V29H495.353ZM538.765 29.24C537.165 29.24 535.675 28.97 534.295 28.43C532.935 27.89 531.755 27.14 530.755 26.18C529.755 25.2 528.975 24.06 528.415 22.76C527.855 21.46 527.575 20.04 527.575 18.5C527.575 16.96 527.855 15.54 528.415 14.24C528.975 12.94 529.755 11.81 530.755 10.85C531.755 9.87 532.935 9.11 534.295 8.57C535.655 8.03 537.145 7.76 538.765 7.76C540.365 7.76 541.835 8.03 543.175 8.57C544.535 9.09 545.715 9.84 546.715 10.82C547.735 11.78 548.515 12.91 549.055 14.21C549.615 15.51 549.895 16.94 549.895 18.5C549.895 20.06 549.615 21.49 549.055 22.79C548.515 24.09 547.735 25.23 546.715 26.21C545.715 27.17 544.535 27.92 543.175 28.46C541.835 28.98 540.365 29.24 538.765 29.24ZM538.765 26.57C539.925 26.57 540.995 26.37 541.975 25.97C542.975 25.57 543.835 25.01 544.555 24.29C545.295 23.55 545.865 22.69 546.265 21.71C546.685 20.73 546.895 19.66 546.895 18.5C546.895 17.34 546.685 16.27 546.265 15.29C545.865 14.31 545.295 13.46 544.555 12.74C543.835 12 542.975 11.43 541.975 11.03C540.995 10.63 539.925 10.43 538.765 10.43C537.585 10.43 536.495 10.63 535.495 11.03C534.515 11.43 533.655 12 532.915 12.74C532.175 13.46 531.595 14.31 531.175 15.29C530.775 16.27 530.575 17.34 530.575 18.5C530.575 19.66 530.775 20.73 531.175 21.71C531.595 22.69 532.175 23.55 532.915 24.29C533.655 25.01 534.515 25.57 535.495 25.97C536.495 26.37 537.585 26.57 538.765 26.57ZM570.98 29V8H579.17C581.01 8 582.58 8.29 583.88 8.87C585.18 9.45 586.18 10.29 586.88 11.39C587.58 12.49 587.93 13.8 587.93 15.32C587.93 16.84 587.58 18.15 586.88 19.25C586.18 20.33 585.18 21.16 583.88 21.74C582.58 22.32 581.01 22.61 579.17 22.61H572.63L573.98 21.23V29H570.98ZM585.02 29L579.68 21.38H582.89L588.29 29H585.02ZM573.98 21.53L572.63 20.06H579.08C581 20.06 582.45 19.65 583.43 18.83C584.43 17.99 584.93 16.82 584.93 15.32C584.93 13.82 584.43 12.66 583.43 11.84C582.45 11.02 581 10.61 579.08 10.61H572.63L573.98 9.11V21.53ZM612.007 17.06H622.807V19.61H612.007V17.06ZM612.277 26.39H624.517V29H609.277V8H624.097V10.61H612.277V26.39Z" fill="white" fill-opacity="0.7"/>
<defs>
<linearGradient id="paint0_linear_142_78" x1="165" y1="503" x2="306" y2="69" gradientUnits="userSpaceOnUse">
<stop offset="0.23323"/>
<stop offset="0.770833" stop-color="white" stop-opacity="0"/>
</linearGradient>
</defs>
</svg>
